# xmcd
# 
# Track frame offsets:
#     150
#     18189
#     34514
#     57070
# 
# Disc length: 1029
# 
# Revision: 0
# Processed by: cddbd v1.5.2PL0 Copyright (c) Steve Scherf et al.
# Submitted via: BonkEnc v1.0.8
# 
DISCID=21040304
DTITLE=ZUN - 東方三月精　Strange and Bright Nature Deity 2
DYEAR=2009
DGENRE=
TTITLE0=可愛い大戦争のリフレーン
TTITLE1=サニールチルフレクション
TTITLE2=夜だから眠れない
TTITLE3=妖精燦々として
EXTD=
EXTT0=
EXTT1=
EXTT2=
EXTT3=
PLAYORDER=
